<svg xmlns="http://www.w3.org/2000/svg" width="30.06" height="30" viewBox="0 0 30.06 30">
  <metadata><?xpacket begin="﻿" id="W5M0MpCehiHzreSzNTczkc9d"?>
<x:xmpmeta xmlns:x="adobe:ns:meta/" x:xmptk="Adobe XMP Core 5.6-c142 79.160924, 2017/07/13-01:06:39        ">
   <rdf:RDF xmlns:rdf="http://www.w3.org/1999/02/22-rdf-syntax-ns#">
      <rdf:Description rdf:about=""/>
   </rdf:RDF>
</x:xmpmeta>
                                                                                                    
                                                                                                    
                                                                                                    
                                                                                                    
                                                                                                    
                                                                                                    
                                                                                                    
                                                                                                    
                                                                                                    
                                                                                                    
                                                                                                    
                                                                                                    
                                                                                                    
                                                                                                    
                                                                                                    
                                                                                                    
                                                                                                    
                                                                                                    
                                                                                                    
                                                                                                    
                           
<?xpacket end="w"?></metadata>
<defs>
    <style>
      .cls-1 {
        fill-rule: evenodd;
      }
    </style>
  </defs>
  <path id="faceBook_Icon" data-name="faceBook Icon" class="cls-1" d="M1769.66,118.96V107.373l3.91-.026,0.57-4.49v-0.012h-4.48c-0.01-2.065-.39-4.487,1.24-4.964a13.91,13.91,0,0,1,3.4-.112c0-1.351-.01-2.7-0.01-4.054a23.485,23.485,0,0,0-4.31-.137,5.209,5.209,0,0,0-4.9,4.7,29.9,29.9,0,0,0-.09,4.566h-3.89v4.528h3.89V118.96h-11.53c-1.75,0-3.57.315-4.24-.836a5.53,5.53,0,0,1-.2-2.233v-24a7.051,7.051,0,0,1,.05-1.671,1.709,1.709,0,0,1,.94-1.072,6.12,6.12,0,0,1,1.99-.125h24.05a7.118,7.118,0,0,1,1.69.05,1.671,1.671,0,0,1,1.07.936,5.806,5.806,0,0,1,.13,1.958v19.646c0,1.684.3,5.964-.41,6.809a1.69,1.69,0,0,1-.89.512Z" transform="translate(-1748.94 -89)"/>
</svg>
