<svg xmlns="http://www.w3.org/2000/svg" xmlns:xlink="http://www.w3.org/1999/xlink" width="35.219" height="43.813" viewBox="0 0 35.219 43.813">
  <metadata><?xpacket begin="﻿" id="W5M0MpCehiHzreSzNTczkc9d"?>
<x:xmpmeta xmlns:x="adobe:ns:meta/" x:xmptk="Adobe XMP Core 5.6-c142 79.160924, 2017/07/13-01:06:39        ">
   <rdf:RDF xmlns:rdf="http://www.w3.org/1999/02/22-rdf-syntax-ns#">
      <rdf:Description rdf:about=""/>
   </rdf:RDF>
</x:xmpmeta>
                                                                                                    
                                                                                                    
                                                                                                    
                                                                                                    
                                                                                                    
                                                                                                    
                                                                                                    
                                                                                                    
                                                                                                    
                                                                                                    
                                                                                                    
                                                                                                    
                                                                                                    
                                                                                                    
                                                                                                    
                                                                                                    
                                                                                                    
                                                                                                    
                                                                                                    
                                                                                                    
                           
<?xpacket end="w"?></metadata>
<defs>
    <style>
      .cls-1 {
        fill-rule: evenodd;
        fill: url(#linear-gradient);
      }
    </style>
    <linearGradient id="linear-gradient" x1="941.36" y1="35" x2="941.36" y2="78.813" gradientUnits="userSpaceOnUse">
      <stop offset="0" stop-color="#234d68"/>
      <stop offset="1" stop-color="#209cab"/>
    </linearGradient>
  </defs>
  <path id="Фигура_1" data-name="Фигура 1" class="cls-1" d="M934.168,53.793V78.8H923.747V59.415c0-1.342.744-1.678,1.654-2.014S934.168,53.793,934.168,53.793Zm0-13.593V53.122H923.747V45.4c0-.923.5-1.091,1.323-1.426S934.168,40.2,934.168,40.2Zm12.406,8.391V78.8H936.153V54.213c0-1.343.744-1.678,1.654-2.014S946.574,48.591,946.574,48.591Zm0-13.593V47.919H936.153V40.2c0-.923.5-1.09,1.323-1.426S946.574,35,946.574,35ZM958.98,57.15V78.8H948.559V62.772c0-1.343.744-1.679,1.654-2.014S958.98,57.15,958.98,57.15Zm0-13.594V56.478H948.559v-7.72c0-.923.5-1.091,1.323-1.426S958.98,43.556,958.98,43.556Z" transform="translate(-923.75 -35)"/>
</svg>
