<?xml version="1.0" standalone="no"?>
<!DOCTYPE svg PUBLIC "-//W3C//DTD SVG 20010904//EN"
 "http://www.w3.org/TR/2001/REC-SVG-20010904/DTD/svg10.dtd">
<svg version="1.0" xmlns="http://www.w3.org/2000/svg"
 width="704.000000pt" height="704.000000pt" viewBox="0 0 704.000000 704.000000"
 preserveAspectRatio="xMidYMid meet">
<metadata>
Created by potrace 1.11, written by Peter Selinger 2001-2013
</metadata>
<g transform="translate(0.000000,704.000000) scale(0.100000,-0.100000)"
fill="#000000" stroke="none">
<path d="M4300 7016 c-25 -12 -49 -23 -55 -25 -25 -8 -369 -149 -430 -176 -70
-31 -272 -113 -295 -120 -14 -4 -29 -11 -35 -15 -15 -12 -380 -160 -394 -160
-6 0 -11 -4 -11 -10 0 -5 -6 -10 -14 -10 -12 0 -55 -16 -131 -50 -11 -5 -45
-19 -75 -31 -103 -43 -150 -80 -165 -135 -10 -32 -15 -1313 -6 -1315 3 -1 380
-2 837 -3 l831 -1 0 1025 c0 564 -2 1030 -6 1036 -4 8 -19 5 -51 -10z"/>
<path d="M2255 6160 c-147 -63 -154 -66 -310 -130 -145 -59 -198 -81 -240
-100 -11 -5 -49 -21 -85 -35 -36 -14 -74 -30 -85 -34 -68 -29 -155 -65 -255
-106 -130 -53 -133 -54 -213 -89 -32 -14 -60 -26 -63 -26 -10 0 -146 -60 -199
-87 -59 -30 -75 -45 -98 -95 -16 -33 -17 -92 -17 -682 0 -608 1 -646 18 -646
22 -1 1529 -1 1602 0 l55 0 0 1035 c0 684 -3 1035 -10 1034 -5 0 -50 -18 -100
-39z"/>
<path d="M6311 5649 c-13 -5 -38 -16 -55 -23 -17 -8 -110 -47 -206 -86 -96
-40 -188 -78 -205 -85 -16 -7 -55 -23 -85 -35 -30 -12 -68 -28 -85 -35 -16 -8
-97 -42 -180 -76 -82 -33 -161 -66 -175 -72 -14 -6 -27 -11 -30 -12 -3 -1 -23
-9 -45 -19 -74 -33 -90 -39 -109 -43 -11 -2 -24 -7 -30 -12 -6 -5 -63 -30
-126 -56 -63 -26 -126 -52 -140 -58 -14 -6 -27 -11 -30 -12 -34 -8 -119 -85
-121 -109 0 -6 -3 -20 -5 -31 -6 -22 -11 -1248 -6 -1280 3 -20 10 -20 820 -18
449 2 825 3 835 3 16 0 17 56 17 1035 0 569 -3 1035 -7 1034 -5 0 -19 -5 -32
-10z"/>
<path d="M4235 4806 c-55 -23 -109 -46 -120 -51 -11 -4 -22 -9 -25 -10 -3 -1
-16 -6 -30 -12 -14 -6 -119 -50 -235 -97 -115 -48 -226 -94 -245 -102 -38 -17
-53 -23 -120 -50 -25 -9 -63 -25 -85 -35 -22 -9 -87 -36 -145 -59 -58 -23
-114 -45 -125 -50 -11 -5 -60 -25 -110 -45 -130 -52 -174 -74 -212 -103 -35
-26 -79 -92 -90 -134 -3 -12 -7 -930 -7 -2039 l-2 -2016 837 -1 836 0 0 2424
c0 1742 -3 2424 -11 2423 -6 0 -56 -19 -111 -43z"/>
<path d="M2320 4003 c-41 -19 -49 -22 -245 -102 -82 -34 -161 -67 -175 -73
-14 -6 -27 -12 -30 -13 -3 -1 -21 -8 -40 -17 -19 -8 -84 -35 -145 -59 -60 -24
-112 -46 -115 -49 -3 -3 -12 -6 -20 -8 -8 -2 -28 -10 -45 -17 -16 -8 -97 -41
-180 -75 -82 -33 -165 -67 -183 -75 -18 -8 -39 -15 -47 -15 -8 0 -15 -4 -15
-10 0 -5 -3 -9 -7 -8 -12 4 -228 -84 -231 -93 -2 -5 -9 -9 -17 -9 -7 0 -32
-20 -56 -44 -85 -85 -79 56 -79 -1742 l0 -1592 837 0 838 0 0 2009 c0 1105 -2
2009 -5 2008 -3 0 -21 -7 -40 -16z"/>
<path d="M6205 3421 c-188 -79 -183 -77 -240 -102 -27 -12 -53 -23 -57 -24 -5
-2 -9 -3 -10 -5 -2 -1 -10 -3 -18 -5 -8 -2 -61 -24 -118 -49 -56 -25 -103 -45
-105 -45 -6 1 -148 -58 -224 -92 -23 -10 -46 -19 -51 -19 -4 0 -28 -10 -53
-22 -24 -11 -50 -21 -56 -21 -7 0 -13 -4 -13 -9 0 -4 -5 -8 -11 -8 -16 0 -406
-158 -437 -177 -55 -35 -102 -93 -119 -151 -15 -52 -16 -174 -17 -1362 -1
-718 0 -1310 2 -1316 2 -8 229 -11 838 -12 l834 0 0 1739 c0 957 -1 1739 -2
1739 -2 -1 -66 -27 -143 -59z"/>
</g>
</svg>
